<?xml version="1.0" encoding="utf-8"?>
<svg width="1034px" height="347px" viewBox="0 0 1034 347" version="1.1" xmlns:xlink="http://www.w3.org/1999/xlink" xmlns="http://www.w3.org/2000/svg">
  <g id="Group">
    <path d="M111.2 1.69998C109.5 3.19998 19.9 163.5 11.4 180.3C4.7 193.4 0 214.2 0 230.5C0 282.3 35.8 329.3 85.3 342.5C124.2 352.9 164.2 343.5 194.4 316.7C200.9 311 211.3 298.3 216 290.6L218.4 286.7L211.8 287.3C203.2 288.1 196.9 290.6 184.1 298.3C167.9 308.1 161.4 311.5 150.5 315.8C131.9 323.2 114.4 325.9 98 324C75.5 321.5 58.9 314 45 300C35.2 290.2 31 283.6 26.7 271.3C24.1 263.8 23.6 260.6 23.2 250.2C22.7 236.2 23.8 229.2 28.2 217.6C31.8 208.2 40.9 194.4 48 187.5L53.1 182.5L50.9 188C44.6 203.6 43.6 208.7 43.6 224.5C43.6 238 43.9 240.4 46.4 248.5C47.9 253.4 50.9 261.1 53.1 265.6C60.5 280.7 74.2 290.8 92.2 294.4C108.2 297.7 137 295.7 154.5 290.3C158.9 288.9 169.5 284.5 178 280.5C196.6 271.6 201 270.5 214.8 271.3L225.1 271.9L226.1 269.2C228.5 263.1 231.1 250.3 232.1 240.4C233.2 228.3 232 213.4 229 201.6C225.2 186.5 226.9 189.7 162.8 75C151 53.8 137.1 29.1 132.1 20C127 10.9 122 2.69998 120.8 1.69998C119.7 0.799988 117.5 0 116 0C114.5 0 112.3 0.799988 111.2 1.69998L111.2 1.69998ZM141.4 152.6C148.6 154.4 160.4 160.5 166.8 165.8C171.3 169.4 179.4 178.9 178.7 179.6C178.5 179.8 175.5 178.9 172.1 177.5C137.1 163.3 97.9 172.4 85.1 197.8C77.2 213.5 77 236.7 84.7 249.9C92.2 262.8 109.5 274.6 131 281.5C136.1 283.2 136.3 283.4 134 284.3C129.2 286.2 110 286.4 103 284.6C84.2 279.8 70.1 268.7 61.4 251.6C56.9 242.8 55 234.1 55 221.2C55 207.4 57.2 197.5 62.6 186.1C70.8 169.3 84.9 158 104 153C113.7 150.5 132.5 150.3 141.4 152.6L141.4 152.6Z" id="Shape" fill="#10193A" fill-rule="evenodd" stroke="none" />
    <path d="M70.2256 1.60069C60.0256 3.8007 48.3256 8.7007 39.9256 14.2007C32.2256 19.2007 19.9256 31.5007 14.9256 39.2007C0.725586 60.8007 -3.5744 88.3007 3.02563 114.101C9.02563 137.301 28.3256 159.801 51.6256 170.701C63.9256 176.501 72.2256 178.101 89.9256 178.101C108.326 178.201 114.726 176.901 128.326 170.601C132.926 168.501 137.026 166.701 137.426 166.701C137.826 166.701 141.826 171.401 146.426 177.201L154.626 187.701L165.026 187.701C170.726 187.701 175.426 187.501 175.426 187.201C175.426 186.901 170.326 180.301 164.126 172.401C157.926 164.601 152.426 157.601 152.026 156.901C151.526 156.001 152.926 153.801 156.126 150.401C171.226 134.401 179.126 115.501 179.926 93.2007C180.926 64.4007 171.926 42.6007 150.926 22.9007C141.026 13.7007 127.326 6.00069 114.426 2.60069C103.226 -0.399307 81.7256 -0.899307 70.2256 1.60069L70.2256 1.60069ZM102.826 18.1007C118.226 21.1007 130.326 27.6007 141.926 39.2007C147.326 44.6007 151.126 49.5007 153.626 54.2007C167.826 81.3007 164.026 114.901 144.426 136.901L139.926 141.901L124.926 122.901L109.926 103.801L99.1256 103.701L88.3256 103.701L95.6256 112.901C121.326 145.301 125.426 150.601 125.426 151.501C125.426 152.101 123.026 153.701 120.226 155.001C103.626 162.901 81.1256 163.501 63.1256 156.701C50.3256 151.901 35.2256 139.001 27.7256 126.501C14.7256 105.001 15.0256 73.7007 28.5256 51.1007C33.5256 42.7007 43.8256 32.7007 52.9256 27.3007C69.2256 17.8007 85.4256 14.8007 102.826 18.1007L102.826 18.1007Z" transform="translate(465.5744 119.2993)" id="Shape" fill="#000000" fill-rule="evenodd" stroke="none" />
    <path d="M0 85.5L0 171L41.5 171L83 171L83 162.5L83 154L50 154L17 154L17 77L17 0L8.5 0L0 0L0 85.5L0 85.5Z" transform="translate(309 123)" id="Shape" fill="#000000" fill-rule="evenodd" stroke="none" />
    <path d="M0 85.5L0 171L8.79999 171L17.5 171L17.5 85.5L17.5 0L8.79999 0L0 0L0 85.5L0 85.5Z" transform="translate(416 123)" id="Shape" fill="#000000" fill-rule="evenodd" stroke="none" />
    <path d="M0.100037 58.2C0.200012 120.1 0.799988 131.1 4 140.5C11.3 161.6 32.2 174.9 58.2 175C74.4 175 85.7 170.5 96.6 159.6C107.2 148.9 110.9 139.9 113 119.1C113.5 113.4 114 84.6 114 54.4L114 0L105 0L96 0L96 61.3C96 128 95.9 128.8 90.3 139.2C86.8 145.6 81.3 150.5 73.1 154.4C67.2 157.2 65.6 157.5 57.5 157.4C47.4 157.4 40.6 155.3 32.3 149.7C27.1 146.2 21.7 139 19.9 133.2C17.8 126.2 17.3 109.4 17.4 54.8L17.5 0L8.70001 0L0 0L0.100037 58.2L0.100037 58.2Z" transform="translate(680 123)" id="Shape" fill="#000000" fill-rule="evenodd" stroke="none" />
    <path d="M0 85.5L0 171L8.5 171L17 171L17.1 87.7C17.1 42 17.3 3.5 17.6 2.19998C18 0.100006 17.8 0 9 0L0 0L0 85.5L0 85.5Z" transform="translate(833 123)" id="Shape" fill="#000000" fill-rule="evenodd" stroke="none" />
    <path d="M0 85.6L0 171.2L33.3 171.2C51.5 171.2 70.6 170.7 75.5 170.1C99.2001 167.2 116.9 157 129.2 138.8C138.1 125.8 142.7 111.1 143.6 92.2C145.8 50 123.9 16.1 87.5 5.30002C75.4 1.70001 67.4 1 33.3 0.5L0 0L0 85.6L0 85.6ZM53.5 18.2C71.8 19.4 80.9 21.5 91.6 26.7C99 30.3 102 32.5 107.8 38.6C120.4 51.8 126 67 126 87.5C126 108.5 120.7 122.7 108.1 135.3C93.1 150.3 77.7001 154.1 33.3 154.2L16 154.2L16 85.7L16 17.2L28.3 17.2C35 17.3 46.4 17.7 53.5 18.2L53.5 18.2Z" transform="translate(890 122.79999)" id="Shape" fill="#000000" fill-rule="evenodd" stroke="none" />
  </g>
</svg>